<?xml version="1.0" encoding="UTF-8" standalone="no"?>
<!-- Created with Inkscape (http://www.inkscape.org/) -->

<svg
   xmlns:dc="http://purl.org/dc/elements/1.1/"
   xmlns:cc="http://creativecommons.org/ns#"
   xmlns:rdf="http://www.w3.org/1999/02/22-rdf-syntax-ns#"
   xmlns:svg="http://www.w3.org/2000/svg"
   xmlns="http://www.w3.org/2000/svg"
   xmlns:xlink="http://www.w3.org/1999/xlink"
   xmlns:sodipodi="http://sodipodi.sourceforge.net/DTD/sodipodi-0.dtd"
   xmlns:inkscape="http://www.inkscape.org/namespaces/inkscape"
   width="16"
   height="16"
   id="svg2"
   version="1.1"
   inkscape:version="0.91 r13725"
   sodipodi:docname="close_prelight.svg">
  <defs
     id="defs4">
    <linearGradient
       inkscape:collect="always"
       xlink:href="#linearGradient4557"
       id="linearGradient5336-3"
       x1="72"
       y1="272"
       x2="85.714287"
       y2="272"
       gradientUnits="userSpaceOnUse"
       gradientTransform="matrix(69.135551,0,0,69.135551,-6071.1354,-18246.099)" />
    <linearGradient
       id="linearGradient4557">
      <stop
         id="stop4559"
         offset="0"
         style="stop-color:#b2b2b2;stop-opacity:1" />
      <stop
         id="stop4561"
         offset="1"
         style="stop-color:#ccc;stop-opacity:1" />
    </linearGradient>
    <linearGradient
       id="StandardGradient"
       gradientTransform="scale(0.9219544,1.0846523)"
       x1="11.998966"
       y1="0.92195445"
       x2="11.998966"
       y2="19.387045"
       gradientUnits="userSpaceOnUse">
      <stop
         style="stop-color:#000000;stop-opacity:0.23529412;"
         offset="0"
         id="stop3283" />
      <stop
         style="stop-color:#000000;stop-opacity:0.55;"
         offset="1"
         id="stop2651" />
    </linearGradient>
  </defs>
  <sodipodi:namedview
     id="base"
     pagecolor="#ffffff"
     bordercolor="#666666"
     borderopacity="1.0"
     inkscape:pageopacity="0.0"
     inkscape:pageshadow="2"
     inkscape:zoom="31.678384"
     inkscape:cx="7.9052285"
     inkscape:cy="8.1986305"
     inkscape:document-units="px"
     inkscape:current-layer="g4092"
     showgrid="true"
     fit-margin-top="0"
     fit-margin-left="0"
     fit-margin-right="0"
     fit-margin-bottom="0"
     inkscape:window-width="1366"
     inkscape:window-height="716"
     inkscape:window-x="0"
     inkscape:window-y="24"
     inkscape:window-maximized="1" />
  <metadata
     id="metadata7">
    <rdf:RDF>
      <cc:Work
         rdf:about="">
        <dc:format>image/svg+xml</dc:format>
        <dc:type
           rdf:resource="http://purl.org/dc/dcmitype/StillImage" />
        <dc:title></dc:title>
      </cc:Work>
    </rdf:RDF>
  </metadata>
  <g
     inkscape:label="Layer 1"
     inkscape:groupmode="layer"
     id="layer1"
     transform="translate(-671.14288,-648.57648)">
    <g
       transform="matrix(0.1265625,0,0,-0.1265625,672.07092,663.09636)"
       inkscape:label="ink_ext_XXXXXX"
       id="g4090">
      <g
         transform="scale(0.1,0.1)"
         id="g4092">
        <path
           inkscape:connector-curvature="0"
           id="path4185"
           d="m 558.77213,-63.075695 c -305.46004,0 -553.0863851,247.626315 -553.0863851,553.086395 0,305.46009 247.6263451,553.0864 553.0863851,553.0864 305.46012,0 553.08647,-247.62631 553.08647,-553.0864 0,-305.46008 -247.62635,-553.086395 -553.08647,-553.086395 z m 0,69.1357916 c 268.40571,0 483.95067,215.5447534 483.95067,483.9506034 0,268.40585 -215.54496,483.95061 -483.95067,483.95061 -268.40563,0 -483.95059,-215.54476 -483.95059,-483.95061 0,-268.40585 215.54496,-483.9506034 483.95059,-483.9506034 z"
           style="color:black;display:inline;overflow:visible;visibility:visible;opacity:0.5;fill:white;fill-opacity:1;fill-rule:nonzero;stroke:none;stroke-width:2;marker:none;enable-background:accumulate" />
        <circle
           transform="matrix(0,-1,1,0,0,0)"
           id="path5328-1"
           style="color:black;display:inline;overflow:visible;visibility:visible;fill:url(#linearGradient5336-3);fill-opacity:1;fill-rule:nonzero;stroke:none;stroke-width:2;marker:none;enable-background:accumulate"
           inkscape:export-filename="scale-slider-normal.png"
           inkscape:export-xdpi="90"
           inkscape:export-ydpi="90"
           cx="-540.29132"
           cy="558.77039"
           r="553.08441" />
        <circle
           transform="scale(1,-1)"
           inkscape:export-ydpi="90"
           inkscape:export-xdpi="90"
           inkscape:export-filename="scale-slider-normal.png"
           id="path5140-5"
           style="color:black;display:inline;overflow:visible;visibility:visible;opacity:0.5;fill:none;stroke:none;stroke-width:2;marker:none;enable-background:accumulate"
           cx="489.63632"
           cy="-471.15756"
           r="483.95059" />
        <path
           style="color:black;display:inline;overflow:visible;visibility:visible;opacity:0.5;fill:black;fill-opacity:1;fill-rule:nonzero;stroke:none;stroke-width:2;marker:none;enable-background:accumulate"
           d="m 558.77213,-12.79509 c -305.46004,0 -553.0863851,247.62632 -553.0863851,553.08639 0,305.46009 247.6263451,553.0864 553.0863851,553.0864 305.46012,0 553.08647,-247.62631 553.08647,-553.0864 0,-305.46007 -247.62635,-553.08639 -553.08647,-553.08639 z m 0,69.135796 c 268.40571,0 483.95067,215.544754 483.95067,483.950594 0,268.40586 -215.54496,483.9506 -483.95067,483.9506 -268.40563,0 -483.95059,-215.54474 -483.95059,-483.9506 0,-268.40584 215.54496,-483.950594 483.95059,-483.950594 z"
           id="path4209"
           inkscape:connector-curvature="0" />
        <g
           id="g4154"
           transform="matrix(12.727273,0,0,12.727273,48.729907,85.766938)">
          <path
             id="path3984-9-5"
             d="M 28.531537,54.894729 40.074744,43.35152 51.617958,54.894729 59.256846,47.255841 47.713632,35.712631 59.256846,24.169422 51.617958,16.530534 40.074744,28.073743 28.531537,16.530534 l -7.638888,7.638888 11.543207,11.543209 -11.543207,11.54321 7.638888,7.638888 z"
             style="color:black;display:inline;overflow:visible;visibility:visible;opacity:0.5;fill:black;fill-opacity:1;fill-rule:nonzero;stroke:none;stroke-width:12;marker:none;enable-background:accumulate"
             inkscape:connector-curvature="0" />
          <path
             inkscape:connector-curvature="0"
             id="path4356"
             d="m 27.51302,59.647815 a 4.7298135,4.7298135 0 0 1 -2.376543,-1.358024 l -7.638888,-7.638889 a 4.7298135,4.7298135 0 0 1 0,-6.790123 l 8.148146,-8.148148 -8.148146,-8.148147 a 4.7298135,4.7298135 0 0 1 0,-6.790123 l 7.638888,-7.638889 a 4.7298135,4.7298135 0 0 1 6.790121,0 l 8.148146,8.148148 8.148147,-8.148148 a 4.7298135,4.7298135 0 0 1 6.790127,0 l 7.638888,7.638889 a 4.7298135,4.7298135 0 0 1 0,6.790123 l -8.148146,8.148147 8.148146,8.148148 a 4.7298135,4.7298135 0 0 1 0,6.790123 l -7.638888,7.638889 a 4.7298135,4.7298135 0 0 1 -6.790127,0 l -8.148147,-8.148148 -8.148146,8.148148 a 4.7298135,4.7298135 0 0 1 -3.90432,1.358024 4.7298135,4.7298135 0 0 1 -0.509258,0 z M 28.531537,54.894729 40.074744,43.35152 51.617958,54.894729 59.256846,47.255841 47.713632,35.712631 59.256846,24.169422 51.617958,16.530534 40.074744,28.073743 28.531537,16.530534 l -7.638888,7.638888 11.543207,11.543209 -11.543207,11.54321 7.638888,7.638888 z"
             style="color:black;display:inline;overflow:visible;visibility:visible;opacity:0.05;fill:white;fill-opacity:1;fill-rule:nonzero;stroke:none;stroke-width:12;marker:none;enable-background:accumulate" />
          <path
             inkscape:connector-curvature="0"
             id="path4662"
             d="M 28.531537,54.894729 20.892649,47.255841 32.435856,35.712631 20.892649,24.169422 28.531537,16.530534 40.074744,28.073743 51.617958,16.530534 59.256846,24.169422 47.713632,35.712631 59.256846,47.255841 51.617958,54.894729 40.074744,43.35152 28.531537,54.894729 Z m 0,-2.716049 10.185181,-10.185185 a 1.8552233,1.8552233 0 0 1 2.716052,0 L 51.617958,52.17868 56.540795,47.255841 46.355606,37.070656 a 1.8552233,1.8552233 0 0 1 0,-2.716049 L 56.540795,24.169422 51.617958,19.246583 41.43277,29.431768 a 1.8552233,1.8552233 0 0 1 -2.716052,0 L 28.531537,19.246583 23.6087,24.169422 33.793882,34.354607 a 1.8552233,1.8552233 0 0 1 0,2.716049 L 23.6087,47.255841 28.531537,52.17868 Z"
             style="color:black;display:inline;overflow:visible;visibility:visible;opacity:0.2;fill:black;fill-opacity:1;fill-rule:nonzero;stroke:none;stroke-width:12;marker:none;enable-background:accumulate" />
        </g>
      </g>
    </g>
  </g>
</svg>
