<?xml version="1.0" encoding="UTF-8" standalone="no"?>
<!-- Created with Inkscape (http://www.inkscape.org/) -->

<svg
   xmlns:dc="http://purl.org/dc/elements/1.1/"
   xmlns:cc="http://creativecommons.org/ns#"
   xmlns:rdf="http://www.w3.org/1999/02/22-rdf-syntax-ns#"
   xmlns:svg="http://www.w3.org/2000/svg"
   xmlns="http://www.w3.org/2000/svg"
   xmlns:xlink="http://www.w3.org/1999/xlink"
   xmlns:sodipodi="http://sodipodi.sourceforge.net/DTD/sodipodi-0.dtd"
   xmlns:inkscape="http://www.inkscape.org/namespaces/inkscape"
   width="16"
   height="16"
   id="svg2"
   version="1.1"
   inkscape:version="0.91 r13725"
   sodipodi:docname="maximize_focused_normal.svg">
  <defs
     id="defs4">
    <linearGradient
       id="StandardGradient"
       gradientTransform="scale(0.9219544,1.0846523)"
       x1="11.998966"
       y1="0.92195445"
       x2="11.998966"
       y2="19.387045"
       gradientUnits="userSpaceOnUse">
      <stop
         style="stop-color:#000000;stop-opacity:0.23529412;"
         offset="0"
         id="stop3283" />
      <stop
         style="stop-color:#000000;stop-opacity:0.55;"
         offset="1"
         id="stop2651" />
    </linearGradient>
    <linearGradient
       id="linearGradient3969-1">
      <stop
         id="stop3971-1"
         offset="0"
         style="stop-color:#000000;stop-opacity:1;" />
      <stop
         id="stop3973-3"
         offset="1"
         style="stop-color:#000000;stop-opacity:0;" />
    </linearGradient>
    <linearGradient
       inkscape:collect="always"
       xlink:href="#linearGradient4557"
       id="linearGradient5336-3"
       x1="72"
       y1="272"
       x2="85.714287"
       y2="272"
       gradientUnits="userSpaceOnUse"
       gradientTransform="matrix(6.9135554,0,0,6.9135554,-607.11356,-1824.61)" />
    <linearGradient
       id="linearGradient4557">
      <stop
         id="stop4559"
         offset="0"
         style="stop-color:#dedede;stop-opacity:1" />
      <stop
         id="stop4561"
         offset="1"
         style="stop-color:white;stop-opacity:1" />
    </linearGradient>
  </defs>
  <sodipodi:namedview
     id="base"
     pagecolor="#ffffff"
     bordercolor="#666666"
     borderopacity="1.0"
     inkscape:pageopacity="0.0"
     inkscape:pageshadow="2"
     inkscape:zoom="22.4"
     inkscape:cx="6.7330444"
     inkscape:cy="7.849188"
     inkscape:document-units="px"
     inkscape:current-layer="g4090"
     showgrid="true"
     fit-margin-top="0"
     fit-margin-left="0"
     fit-margin-right="0"
     fit-margin-bottom="0"
     inkscape:window-width="1366"
     inkscape:window-height="718"
     inkscape:window-x="0"
     inkscape:window-y="24"
     inkscape:window-maximized="1" />
  <metadata
     id="metadata7">
    <rdf:RDF>
      <cc:Work
         rdf:about="">
        <dc:format>image/svg+xml</dc:format>
        <dc:type
           rdf:resource="http://purl.org/dc/dcmitype/StillImage" />
        <dc:title></dc:title>
      </cc:Work>
    </rdf:RDF>
  </metadata>
  <g
     inkscape:label="Layer 1"
     inkscape:groupmode="layer"
     id="layer1"
     transform="translate(-671.14288,-648.57648)">
    <g
       transform="matrix(0.1265625,0,0,-0.1265625,672.07092,663.09636)"
       inkscape:label="ink_ext_XXXXXX"
       id="g4090">
      <path
         inkscape:connector-curvature="0"
         id="path4254"
         d="m 55.877213,-6.3075708 c -30.546005,0 -55.30864014,24.7626328 -55.30864014,55.3086418 0,30.546011 24.76263514,55.308649 55.30864014,55.308649 30.546014,0 55.308647,-24.762638 55.308647,-55.308649 0,-30.546009 -24.762633,-55.3086418 -55.308647,-55.3086418 z m 0,6.91357972 c 26.840573,0 48.395067,21.55447708 48.395067,48.39506208 0,26.840587 -21.554494,48.395066 -48.395067,48.395066 -26.840563,0 -48.3950603,-21.554479 -48.3950603,-48.395066 0,-26.840585 21.5544973,-48.39506208 48.3950603,-48.39506208 z"
         style="color:#000000;display:inline;overflow:visible;visibility:visible;opacity:0.5;fill:#ffffff;fill-opacity:1;fill-rule:nonzero;stroke:none;stroke-width:2;marker:none;enable-background:accumulate" />
      <circle
         transform="matrix(0,-1,1,0,0,0)"
         id="path5328-1"
         style="color:#000000;display:inline;overflow:visible;visibility:visible;fill:url(#linearGradient5336-3);fill-opacity:1;fill-rule:nonzero;stroke:none;stroke-width:2;marker:none;enable-background:accumulate"
         inkscape:export-filename="scale-slider-normal.png"
         inkscape:export-xdpi="90"
         inkscape:export-ydpi="90"
         cx="-54.029137"
         cy="55.877041"
         r="55.308445" />
      <circle
         transform="scale(1,-1)"
         inkscape:export-ydpi="90"
         inkscape:export-xdpi="90"
         inkscape:export-filename="scale-slider-normal.png"
         id="path5140-5"
         style="color:#000000;display:inline;overflow:visible;visibility:visible;opacity:0.5;fill:none;stroke:none;stroke-width:2;marker:none;enable-background:accumulate"
         cx="48.963634"
         cy="-47.115757"
         r="48.395061" />
      <path
         style="color:#000000;display:inline;overflow:visible;visibility:visible;opacity:0.5;fill:#000000;fill-opacity:1;fill-rule:nonzero;stroke:none;stroke-width:2;marker:none;enable-background:accumulate"
         d="m 55.877213,-1.27951 c -30.546005,0 -55.30864014,24.762633 -55.30864014,55.308642 0,30.546011 24.76263514,55.308638 55.30864014,55.308638 30.546014,0 55.308647,-24.762627 55.308647,-55.308638 0,-30.546009 -24.762633,-55.308642 -55.308647,-55.308642 z m 0,6.9135798 c 26.840573,0 48.395067,21.5544772 48.395067,48.3950622 0,26.840587 -21.554494,48.395068 -48.395067,48.395068 -26.840563,0 -48.3950603,-21.554481 -48.3950603,-48.395068 0,-26.840585 21.5544973,-48.3950622 48.3950603,-48.3950622 z"
         id="path4209"
         inkscape:connector-curvature="0" />
      <g
         id="g4170"
         transform="translate(4.0101845,3.4846172)">
        <g
           transform="matrix(0.1,0,0,0.1,9.4390819,4.5539846)"
           id="g4320">
          <path
             sodipodi:nodetypes="cccc"
             inkscape:connector-curvature="0"
             id="path5174"
             d="m 229.1132,739.49473 473.37811,-473.3781 0,473.3781 z"
             style="display:inline;opacity:0.5;fill:#000000;fill-opacity:1;stroke:none" />
          <path
             id="path5178"
             d="m 229.1132,739.49473 473.37811,-473.3781 0,473.3781 -473.37811,0 z m 78.1919,-31.69943 363.48681,0 0,-363.48674 L 307.3051,707.7953 Z"
             style="display:inline;opacity:0.2;fill:#000000;fill-opacity:1;stroke:none"
             inkscape:connector-curvature="0" />
          <path
             id="path5180"
             d="M 216.43344,807.12017 A 67.422487,67.422487 0 0 1 180.50743,690.88894 l 473.37811,-473.3781 a 67.422487,67.422487 0 0 1 116.23126,48.60579 l 0,473.3781 a 67.422487,67.422487 0 0 1 -67.62549,67.62544 l -473.37811,0 a 67.422487,67.422487 0 0 1 -6.33988,0 67.422487,67.422487 0 0 1 -6.33988,0 z m 12.67976,-67.62544 473.37811,0 0,-473.3781 -473.37811,473.3781 z"
             style="display:inline;opacity:0.05;fill:#ffffff;fill-opacity:1;stroke:none"
             inkscape:connector-curvature="0" />
        </g>
        <g
           id="g4152"
           transform="matrix(-0.1,0,0,-0.1,94.294982,96.535041)">
          <path
             style="display:inline;opacity:0.5;fill:#000000;fill-opacity:1;stroke:none"
             d="m 229.1132,739.49473 473.37811,-473.3781 0,473.3781 z"
             id="path4154"
             inkscape:connector-curvature="0"
             sodipodi:nodetypes="cccc" />
          <path
             inkscape:connector-curvature="0"
             style="display:inline;opacity:0.2;fill:#000000;fill-opacity:1;stroke:none"
             d="m 229.1132,739.49473 473.37811,-473.3781 0,473.3781 -473.37811,0 z m 78.1919,-31.69943 363.48681,0 0,-363.48674 L 307.3051,707.7953 Z"
             id="path4156" />
          <path
             inkscape:connector-curvature="0"
             style="display:inline;opacity:0.05;fill:#ffffff;fill-opacity:1;stroke:none"
             d="M 216.43344,807.12017 A 67.422487,67.422487 0 0 1 180.50743,690.88894 l 473.37811,-473.3781 a 67.422487,67.422487 0 0 1 116.23126,48.60579 l 0,473.3781 a 67.422487,67.422487 0 0 1 -67.62549,67.62544 l -473.37811,0 a 67.422487,67.422487 0 0 1 -6.33988,0 67.422487,67.422487 0 0 1 -6.33988,0 z m 12.67976,-67.62544 473.37811,0 0,-473.3781 -473.37811,473.3781 z"
             id="path4158" />
        </g>
      </g>
    </g>
  </g>
</svg>
