/* XPM */
static char *close_pressed[] = {
/* columns rows colors chars-per-pixel */
"20 22 45 1 ",
"  c #84B1336F29FD",
". c #93E834E827E9",
"X c #98E93BE92EE9",
"o c #CCCC49493636",
"O c #E1E151513C3C",
"+ c #9C604EE5438F",
"@ c #9A5B532348D9",
"# c #A21A57754B2D",
"$ c #A98B65BA5C5F",
"% c #B5E962EA55EA",
"& c #BBE96BEA5FEA",
"* c #BB79790F6DAC",
"= c #B6DE7B2570A7",
"- c #B3EF7D9B7685",
"; c #D1D158584646",
": c #E4E459594545",
"> c #E6E65A5A4646",
", c #E8E862624E4E",
"< c #E6E669695656",
"1 c #E9E96A6A5757",
"2 c #E8E871715E5E",
"3 c #EBEB72725F5F",
"4 c #D9D970706060",
"5 c #ECEC7A7A6868",
"6 c #DFDF81817171",
"7 c #EDED81816F6F",
"8 c #EEEE82827070",
"9 c #EDED89897878",
"0 c #C75D91A087B4",
"q c #D054A6979F2F",
"w c #CC7AAD3AA966",
"e c #D006B2CAAEBF",
"r c #DBFDC5E1C1C9",
"t c gray87",
"y c #E248CE79CA69",
"u c gray90",
"i c #E6E6E6E6E6E6",
"p c #E7E7E7E7E7E7",
"a c gray91",
"s c #E9E9E9E9E9E9",
"d c #EAF1EAF1EAF1",
"f c #EBE9EBE9EBE9",
"g c #EE23EE23EE23",
"h c #EF48EF48EF48",
"j c #F103F103F103",
/* pixels */
"tttttttttttttttttttt",
"iiiiiiiiiiiiiiiiiiii",
"iiiiiiiiiiiiiiiiiiii",
"uuuuuuuuuuuuuuuuuuuu",
"iiiiiiiiiiiiiiiiiiii",
"pppppppppppppppppppp",
"iiiiiiiiiiiiiiiiiiii",
"ppppppw@  @wpppppppp",
"ppppp-.oOOo.-ppppppp",
"aaaaeX:>>>>:Xeaaaaaa",
"pppp$;,,,,,,;$pppppp",
"aaaa+<111111<+aaaaaa",
"ssss#23333332#ssssss",
"aaaa=45555554=aaaaaa",
"ssssr%788887%rssssss",
"ssssdq&6996&qdssssss",
"dddddgy0**0ygddddddd",
"ssssssfhjjhfssssssss",
"dddddddddddddddddddd",
"ffffffffffffffffffff",
"ffffffffffffffffffff",
"ffffffffffffffffffff"
};
