/* XPM */
static char *close_prelight[] = {
/* columns rows colors chars-per-pixel */
"20 22 44 1 ",
"  c #86C243AD3B2C",
". c #95EA46EA3BEA",
"X c #9CEA4DEA42EA",
"o c #9E525D2153AE",
"O c #9D5E62045A1B",
"+ c #A3EF64A05C20",
"@ c #AB5373346AA0",
"# c #B6E871E966E9",
"$ c #BDE77AE86EE8",
"% c #CFCF62625353",
"& c #E5E56C6C5C5C",
"* c #D5D570706060",
"= c #E9E974746363",
"- c #EBEB75756464",
"; c #ECEC7C7C6B6B",
": c #BD35853A7ACB",
"> c #B91885717E2D",
", c #DCDC83837676",
"< c #EAEA80807171",
"1 c #EDED82827272",
"2 c #EBEB87877878",
"3 c #EEEE89897979",
"4 c #B68989A78291",
"5 c #C87C9B049393",
"6 c #EFEF8F8F8080",
"7 c #E2E292928484",
"8 c #EFEF95958686",
"9 c #F0F096968787",
"0 c #F0F09C9C8D8D",
"q c #D103AE02A7F3",
"w c #CF7DB557B279",
"e c #D0B8B964B698",
"r c #DC37C8F8C61B",
"t c gray87",
"y c #E1CFD10CCCFC",
"u c gray90",
"i c #E6E6E6E6E6E6",
"p c #E7E7E7E7E7E7",
"a c #E8E9E8E9E8E9",
"s c #E9E5E9E5E9E5",
"d c #EAEAEAEAEAEA",
"f c #EBE8EBE8EBE8",
"g c #ED00ED00ED00",
"h c #EEF8EEF8EEF8",
/* pixels */
"tttttttttttttttttttt",
"iiiiiiiiiiiiiiiiiiii",
"iiiiiiiiiiiiiiiiiiii",
"uuuuuuuuuuuuuuuuuuuu",
"iiiiiiiiiiiiiiiiiiii",
"pppppppppppppppppppp",
"iiiiiiaghhgaiiiiiiii",
"pppppfy5::5yfppppppp",
"ppppsq$7007$qspppppp",
"aaaar#899998#raaaaaa",
"pppp>,666666,>pppppp",
"aaaa+23333332+aaaaaa",
"sssso<111111<ossssss",
"aaaa@*;;;;;;*@aaaaaa",
"sssseX=----=Xessssss",
"sssss4.%&&%.4sssssss",
"ddddddwO  Owdddddddd",
"ssssssssssssssssssss",
"dddddddddddddddddddd",
"ffffffffffffffffffff",
"ffffffffffffffffffff",
"ffffffffffffffffffff"
};
