/* XPM */
static char *hide_inactive[] = {
/* columns rows colors chars-per-pixel */
"20 22 42 1 ",
"  c #6E046E046E04",
". c #79E879E879E8",
"X c #81E981E981E9",
"o c #869286928692",
"O c #897A897A897A",
"+ c #911891189118",
"@ c #986598659865",
"# c #A4EAA4EAA4EA",
"$ c #A5C3A5C3A5C3",
"% c gray66",
"& c #AAC3AAC3AAC3",
"* c #ADE9ADE9ADE9",
"= c #B017B017B017",
"- c gray70",
"; c gray73",
": c #BF19BF19BF19",
"> c #C0C0C0C0C0C0",
", c #C2EAC2EAC2EA",
"< c #C3C3C3C3C3C3",
"1 c #C6C6C6C6C6C6",
"2 c #C818C818C818",
"3 c #C8C8C8C8C8C8",
"4 c #CBCBCBCBCBCB",
"5 c gray80",
"6 c #CECECECECECE",
"7 c gray81",
"8 c gray83",
"9 c #D7DED7DED7DE",
"0 c #D8D8D8D8D8D8",
"q c gray86",
"w c gray87",
"e c #DFBEDFBEDFBE",
"r c gray90",
"t c #E6E6E6E6E6E6",
"y c #E7E7E7E7E7E7",
"u c gray91",
"i c #E9E9E9E9E9E9",
"p c #EAF1EAF1EAF1",
"a c #EBE9EBE9EBE9",
"s c #EE23EE23EE23",
"d c #EF48EF48EF48",
"f c #F103F103F103",
/* pixels */
"wwwwwwwwwwwwwwwwwwww",
"tttttttttttttttttttt",
"tttttttttttttttttttt",
"rrrrrrrrrrrrrrrrrrrr",
"tttttttttttttttttttt",
"yyyyyyyyyyyyyyyyyyyy",
"tttttttttttttttttttt",
"yyyyyy,o  o,yyyyyyyy",
"yyyyy$.%;;%.$yyyyyyy",
"uuuu2X>,,,,>X2uuuuuu",
"yyyy@-111111-@yyyyyy",
"uuuuO34444443Ouuuuuu",
"iiii+57777775+iiiiii",
"uuuu&<888888<&uuuuuu",
"iiii9#900009#9iiiiii",
"iiiip2*6qq6*2piiiiii",
"pppppse:==:esppppppp",
"iiiiiiadffdaiiiiiiii",
"pppppppppppppppppppp",
"aaaaaaaaaaaaaaaaaaaa",
"aaaaaaaaaaaaaaaaaaaa",
"aaaaaaaaaaaaaaaaaaaa"
};
