/* XPM */
static char *menu_pressed[] = {
/* columns rows colors chars-per-pixel */
"20 22 31 1 ",
"  c #52528A8AB5B5",
". c #5C5C9292BCBC",
"X c #66669B9BC3C3",
"o c #7110A241C766",
"O c #7171A4A4CBCB",
"+ c #7B93A6BEC8E1",
"@ c #7CBBA9E8CC0A",
"# c #7933AA64CE88",
"$ c #87F6AC1AC736",
"% c #8659AE81CDA0",
"& c #8C3AAE5CC977",
"* c #B88FD2A9E6BD",
"= c gray87",
"- c #D0A9E0B9ECC5",
"; c #D7C9E5D7EFE1",
": c gray90",
"> c #E6E6E6E6E6E6",
", c #E7E8E7E8E7E8",
"< c #E8E6E8E6E8E6",
"1 c #E9EAE9EAE9EA",
"2 c #EAECEAECEAEC",
"3 c gray92",
"4 c #EC98EC98EC98",
"5 c #EDE3EDE3EDE3",
"6 c #EF31EF31EF31",
"7 c #E3A9EBB1F1B7",
"8 c #E55CEC64F169",
"9 c #ECB2EFB6F2B8",
"0 c #F01CF21EF31F",
"q c #F164F265F366",
"w c #F281F281F281",
/* pixels */
"====================",
">>>>>>>>>>>>>>>>>>>>",
">>>>>>>>>>>>>>>>>>>>",
"::::::::::::::::::::",
">>>>>>>>>>>>>>>>>>>>",
",,,,,,,,,,,,,,,,,,,,",
">>>>>>>>>>>>>>>>>>>>",
",,,,,,,,,,,,,,,,,,,,",
",,,,,,$      &,,,,,,",
"<<<<<<0+....%q<<<<<<",
",,,,,,<8oXX@9,,,,,,,",
"<<<<<<<2-O#71<<<<<<<",
"111111116*;411111111",
"<<<<<<<<<w5<<<<<<<<<",
"11111111111111111111",
"11111111111111111111",
"22222222222222222222",
"11111111111111111111",
"22222222222222222222",
"33333333333333333333",
"33333333333333333333",
"33333333333333333333"
};
