/* XPM */
static char *menu_active[] = {
/* columns rows colors chars-per-pixel */
"20 22 25 1 ",
"  c #8E278E278E27",
". c #A0D4A0D4A0D4",
"X c #A6BBA6BBA6BB",
"o c #ACA8ACA8ACA8",
"O c #ADE2ADE2ADE2",
"+ c #B187B187B187",
"@ c #B2ACB2ACB2AC",
"# c #B37FB37FB37F",
"$ c #B878B878B878",
"% c #D74DD74DD74D",
"& c gray87",
"* c #E3BEE3BEE3BE",
"= c gray90",
"- c #E6E6E6E6E6E6",
"; c #E7E8E7E8E7E8",
": c #E8E6E8E6E8E6",
"> c #E9EAE9EAE9EA",
", c #EAECEAECEAEC",
"< c gray92",
"1 c #ECD5ECD5ECD5",
"2 c #EDD0EDD0EDD0",
"3 c #EF31EF31EF31",
"4 c #F056F056F056",
"5 c #F214F214F214",
"6 c #F281F281F281",
/* pixels */
"&&&&&&&&&&&&&&&&&&&&",
"--------------------",
"--------------------",
"====================",
"--------------------",
";;;;;;;;;;;;;;;;;;;;",
"--------------------",
";;;;;;;;;;;;;;;;;;;;",
";;;;;;O      +;;;;;;",
"::::::5@....$6::::::",
";;;;;;:2oXX#4;;;;;;;",
":::::::,*O@1>:::::::",
">>>>>>>>3%-1>>>>>>>>",
":::::::::62:::::::::",
">>>>>>>>>>>>>>>>>>>>",
">>>>>>>>>>>>>>>>>>>>",
",,,,,,,,,,,,,,,,,,,,",
">>>>>>>>>>>>>>>>>>>>",
",,,,,,,,,,,,,,,,,,,,",
"<<<<<<<<<<<<<<<<<<<<",
"<<<<<<<<<<<<<<<<<<<<",
"<<<<<<<<<<<<<<<<<<<<"
};
