/* XPM */
static char *menu_inactive[] = {
/* columns rows colors chars-per-pixel */
"20 22 21 1 ",
"  c #BB88BB88BB88",
". c #C894C894C894",
"X c #CB17CB17CB17",
"o c #CCB7CCB7CCB7",
"O c #CE03CE03CE03",
"+ c #CF9CCF9CCF9C",
"@ c #D12AD12AD12A",
"# c #D1AFD1AFD1AF",
"$ c #D415D415D415",
"% c gray87",
"& c #E30CE30CE30C",
"* c gray90",
"= c #E6E6E6E6E6E6",
"- c #E7E9E7E9E7E9",
"; c #E8EBE8EBE8EB",
": c #E9EAE9EAE9EA",
"> c #EAEAEAEAEAEA",
", c #EBEAEBEAEBEA",
"< c #ED22ED22ED22",
"1 c #EE6AEE6AEE6A",
"2 c #EEFFEEFFEEFF",
/* pixels */
"%%%%%%%%%%%%%%%%%%%%",
"====================",
"====================",
"********************",
"====================",
"--------------------",
"====================",
"--------------------",
"------X      o------",
";;;;;;1@....$2;;;;;;",
"-------<OXX#2-------",
";;;;;;;:;+#<:;;;;;;;",
"::::::::<&>,::::::::",
";;;;;;;;;2,;;;;;;;;;",
"::::::::::::::::::::",
"::::::::::::::::::::",
">>>>>>>>>>>>>>>>>>>>",
"::::::::::::::::::::",
">>>>>>>>>>>>>>>>>>>>",
",,,,,,,,,,,,,,,,,,,,",
",,,,,,,,,,,,,,,,,,,,",
",,,,,,,,,,,,,,,,,,,,"
};
