/* XPM */
static char *menu_prelight[] = {
/* columns rows colors chars-per-pixel */
"20 22 28 1 ",
"  c #61C761C761C7",
". c #73A573A573A5",
"X c #7D9B7D9B7D9B",
"o c #865C865C865C",
"O c #88A388A388A3",
"+ c #8E358E358E35",
"@ c #8F928F928F92",
"# c #903590359035",
"$ c #91CA91CA91CA",
"% c #956D956D956D",
"& c #970F970F970F",
"* c #C3A7C3A7C3A7",
"= c #D70ED70ED70E",
"- c #DE34DE34DE34",
"; c gray87",
": c gray90",
"> c #E6E7E6E7E6E7",
", c #E7E8E7E8E7E8",
"< c #E8E6E8E6E8E6",
"1 c #E9EAE9EAE9EA",
"2 c #EAECEAECEAEC",
"3 c gray92",
"4 c #EC98EC98EC98",
"5 c #EE28EE28EE28",
"6 c #EF31EF31EF31",
"7 c #EFEEEFEEEFEE",
"8 c #F24EF24EF24E",
"9 c #F281F281F281",
/* pixels */
";;;;;;;;;;;;;;;;;;;;",
">>>>>>>>>>>>>>>>>>>>",
">>>>>>>>>>>>>>>>>>>>",
"::::::::::::::::::::",
">>>>>>>>>>>>>>>>>>>>",
",,,,,,,,,,,,,,,,,,,,",
">>>>>>>>>>>>>>>>>>>>",
",,,,,,,,,,,,,,,,,,,,",
",,,,,,$      %,,,,,,",
"<<<<<<7+....&8<<<<<<",
",,,,,,<,oXX#5,,,,,,,",
"<<<<<<<2=O@>1<<<<<<<",
"111111116*-411111111",
"<<<<<<<<<95<<<<<<<<<",
"11111111111111111111",
"11111111111111111111",
"22222222222222222222",
"11111111111111111111",
"22222222222222222222",
"33333333333333333333",
"33333333333333333333",
"33333333333333333333"
};
