/* XPM */ 
static const unsigned char * shade_prelight_xpm[] = {
"20 22 18 1",
" 	c None",
"!	c #DEDEDE",
"#	c #E6E6E6",
"$	c #E5E5E5",
"%	c #E7E7E7",
"&	c #5A5A5A",
"'	c #616161",
"(	c #5F5F5F",
")	c #4E4E4E",
"*	c #E8E8E8",
"+	c #454545",
",	c #696969",
"-	c #343434",
".	c #646464",
"0	c white",
"1	c #E9E9E9",
"2	c #EAEAEA",
"3	c #EBEBEB",
"!!!!!!!!!!!!!!!!!!!!",
"###$$$$$$$$$$$$$$$$$",
"####################",
"####################",
"####################",
"%%%#################",
"####################",
"%%%######&'#########",
"%%%%%%%%())(%%%%%%%%",
"***%%%%(+(,+,%%%%%%%",
"%%%%%%(-(((.-(%%%%%%",
"***%%%000((000%%%%%%",
"11*******((*******11",
"*********((*********",
"11*******((*******11",
"11111111100111111111",
"22222222222222222222",
"11111111111111111111",
"22222222222222222222",
"33333333333333333333",
"33333333333333333333",
"33333333333333333333"};