/* XPM */ 
static const unsigned char * shade_active_xpm[] = {
"20 22 19 1",
" 	c None",
"!	c #DEDEDE",
"#	c #E6E6E6",
"$	c #E5E5E5",
"%	c #E7E7E7",
"&	c #878787",
"'	c #8E8E8E",
"(	c #848484",
")	c #7C7C7C",
"*	c #E8E8E8",
"+	c #8C8C8C",
",	c #727272",
"-	c #959595",
".	c #5E5E5E",
"0	c #909090",
"1	c white",
"2	c #E9E9E9",
"3	c #EAEAEA",
"4	c #EBEBEB",
"!!!!!!!!!!!!!!!!!!!!",
"###$$$$$$$$$$$$$$$$$",
"####################",
"####################",
"####################",
"%%%#################",
"####################",
"%%%######&'#########",
"%%%%%%%%())'%%%%%%%%",
"***%%%%+,+-,-%%%%%%%",
"%%%%%%+.+++0.0%%%%%%",
"***%%%111++111%%%%%%",
"22*******++*******22",
"*********++*********",
"22*******++*******22",
"22222222211222222222",
"33333333333333333333",
"22222222222222222222",
"33333333333333333333",
"44444444444444444444",
"44444444444444444444",
"44444444444444444444"};