/* XPM */ 
static const unsigned char * shade_inactive_xpm[] = {
"20 22 18 1",
" 	c None",
"!	c #DEDEDE",
"#	c #E6E6E6",
"$	c #E5E5E5",
"%	c #E7E7E7",
"&	c #CACACA",
"'	c #CCCCCC",
"(	c #C9C9C9",
")	c #C6C6C6",
"*	c #CDCDCD",
"+	c #E8E8E8",
",	c #C4C4C4",
"-	c #B5B5B5",
".	c #C5C5C5",
"0	c #EAEAEA",
"1	c #E9E9E9",
"2	c #CFCFCF",
"3	c #EBEBEB",
"!!!!!!!!!!!!!!!!!!!!",
"###$$$$$$$$$$$$$$$$$",
"####################",
"####################",
"####################",
"%%%#################",
"####################",
"%%%######&'#########",
"%%%%%%%%())*%%%%%%%%",
"+++%%%%,,)),,%%%%%%%",
"%%%%%%,-.)).-.%%%%%%",
"+++%%%000))000%%%%%%",
"11+++++++))+++++++11",
"+++++++++))+++++++++",
"11+++++++22+++++++11",
"11111111100111111111",
"00000000000000000000",
"11111111111111111111",
"00000000000000000000",
"33333333333333333333",
"33333333333333333333",
"33333333333333333333"};