/* XPM */ 
static const unsigned char * shade_pressed_xpm[] = {
"20 22 23 1",
" 	c None",
"!	c #DEDEDE",
"#	c #E6E6E6",
"$	c #E5E5E5",
"%	c #E7E7E7",
"&	c #70A2C8",
"'	c #77A7CA",
"(	c #7AA3C4",
")	c #6599C0",
"*	c #E8E8E8",
"+	c #5B90B9",
",	c #6599C1",
"-	c #669AC1",
".	c #84ABCA",
"0	c #5188B2",
"1	c #88A8C3",
"2	c white",
"3	c #E9E9E9",
"4	c #6FA1C8",
"5	c #8BB5D5",
"6	c #91BBDA",
"7	c #EAEAEA",
"8	c #EBEBEB",
"!!!!!!!!!!!!!!!!!!!!",
"###$$$$$$$$$$$$$$$$$",
"####################",
"####################",
"####################",
"%%%#################",
"####################",
"%%%######&'#########",
"%%%%%%%%())(%%%%%%%%",
"***%%%%(+,-+.%%%%%%%",
"%%%%%%(01,,10(%%%%%%",
"***%%%222,,222%%%%%%",
"33*******44*******33",
"*********55*********",
"33*******66*******33",
"33333333322333333333",
"77777777777777777777",
"33333333333333333333",
"77777777777777777777",
"88888888888888888888",
"88888888888888888888",
"88888888888888888888"};